<svg xmlns="http://www.w3.org/2000/svg" xmlns:xlink="http://www.w3.org/1999/xlink" width="99.15" height="30.5" viewBox="0 0 99.15 30.5">
  <defs>
    <linearGradient id="linear-gradient" x2="1" y2="1" gradientUnits="objectBoundingBox">
      <stop offset="0" stop-color="#4664ff"/>
      <stop offset="1" stop-color="#ff466c"/>
    </linearGradient>
  </defs>
  <g id="Grocery" transform="translate(-22263.5 4914.999)">
    <path id="Union_7" data-name="Union 7" d="M-22230.369,4921.634h1.826c.084.749.867,1.24,1.867,1.24,1.016,0,1.7-.486,1.7-1.151,0-.587-.436-.917-1.525-1.163l-1.178-.257c-1.672-.357-2.5-1.2-2.5-2.531,0-1.67,1.447-2.771,3.469-2.771,2.107,0,3.432,1.084,3.465,2.727h-1.777c-.061-.771-.736-1.235-1.682-1.235s-1.564.447-1.564,1.117c0,.559.441.872,1.48,1.112l1.1.234c1.816.386,2.6,1.168,2.6,2.548,0,1.76-1.42,2.867-3.672,2.867C-22228.928,4924.372-22230.314,4923.338-22230.369,4921.634Zm-33.633-1.95c0-2.917,1.666-4.683,4.287-4.683a3.73,3.73,0,0,1,3.982,3.409h-1.844a2.1,2.1,0,0,0-2.139-1.838c-1.432,0-2.354,1.2-2.354,3.106,0,1.934.912,3.129,2.363,3.129a2.051,2.051,0,0,0,2.135-1.738h1.844a3.675,3.675,0,0,1-3.988,3.3C-22262.348,4924.372-22264,4922.612-22264,4919.684Zm49.283,3.6a1,1,0,0,1,1.012-1.011,1.006,1.006,0,0,1,1.01,1.011,1.01,1.01,0,0,1-1.01,1.012A1.008,1.008,0,0,1-22214.719,4923.282Zm-4.873.933v-3.38l-3.15-5.677h2.066l2.029,3.867h.045l2.033-3.867h2.033l-3.156,5.677v3.38Zm-16.008,0v-7.493h-2.621v-1.564h7.141v1.564h-2.625v7.493Zm-5.3,0-1.687-3.313h-1.52v3.313H-22246v-9.057h3.711c2.084,0,3.273,1.1,3.273,2.889a2.66,2.66,0,0,1-1.643,2.57l1.91,3.6Zm-3.207-4.688h1.631a1.361,1.361,0,0,0,1.514-1.447,1.389,1.389,0,0,0-1.529-1.442h-1.615Zm-4.834,4.688-.693-2.2h-3.184l-.687,2.2h-1.951l3.146-9.057h2.23l3.15,9.057Zm-3.469-3.615h2.369l-1.162-3.71h-.045Z" transform="translate(44528 -9830)" fill="url(#linear-gradient)"/>
    <path id="Union_10" data-name="Union 10" d="M44.906,7.778c0-4.729,2.744-7.778,7-7.778,3.38,0,5.954,2,6.449,5H56.391A4.426,4.426,0,0,0,51.9,1.733c-3.035,0-5,2.381-5,6.044,0,3.7,1.948,6.057,5.017,6.057,2.281,0,3.918-1.065,4.477-2.9h1.959c-.711,2.975-3.015,4.636-6.449,4.636C47.619,15.568,44.906,12.55,44.906,7.778ZM28.783,7.79c0-4.782,2.756-7.79,7.158-7.79S43.1,3.008,43.1,7.79s-2.755,7.779-7.158,7.779S28.783,12.572,28.783,7.79Zm1.992,0c0,3.707,1.991,6.045,5.166,6.045S41.108,11.5,41.108,7.79s-1.992-6.056-5.167-6.056S30.775,4.072,30.775,7.79ZM0,7.706C0,3,2.766,0,7.115,0c3.359,0,5.909,1.932,6.491,4.929H11.571a4.407,4.407,0,0,0-4.457-3.2c-3.2,0-5.124,2.235-5.124,5.962,0,3.791,1.959,6.14,5.124,6.14,2.755,0,4.65-1.733,4.65-4.259V9.3H7.384V7.655H13.7v1.43c0,4.072-2.443,6.484-6.587,6.484C2.777,15.568,0,12.5,0,7.706Zm90.286,7.611V8.833L84.776.251h2.207l4.241,6.765h.064L95.528.251h2.208L92.224,8.833v6.484Zm-8.5,0L78.458,9.355H74.744v5.963H72.806V.251H78.63c2.993,0,4.95,1.774,4.95,4.489a4.313,4.313,0,0,1-3.12,4.323l3.595,6.254ZM74.744,7.7h3.713c1.991,0,3.122-1.044,3.122-2.892,0-1.807-1.206-2.882-3.208-2.882H74.744ZM60.633,15.317V.251h9.623V1.942H62.57V6.777h7.287V8.446H62.57v5.18h7.686v1.691Zm-35.479,0L21.829,9.355H18.115v5.963H16.178V.251H22c2.993,0,4.952,1.774,4.952,4.489a4.313,4.313,0,0,1-3.121,4.323l3.595,6.254ZM18.115,7.7h3.713C23.82,7.7,24.95,6.651,24.95,4.8c0-1.807-1.205-2.882-3.208-2.882H18.115Z" transform="translate(22264 -4900.567)" fill="#212121" stroke="rgba(0,0,0,0)" stroke-miterlimit="10" stroke-width="1"/>
  </g>
</svg>
